<svg width="25" height="25" xmlns="http://www.w3.org/2000/svg" xmlns:xlink="http://www.w3.org/1999/xlink" xml:space="preserve" overflow="hidden"><g transform="translate(-687 -449)"><path d="M699.5 449C696.185 449 693.005 450.317 690.661 452.661 688.317 455.005 687 458.185 687 461.5 687 464.815 688.317 467.995 690.661 470.339 693.005 472.683 696.185 474 699.5 474 702.815 474 705.995 472.683 708.339 470.339 710.683 467.995 712 464.815 712 461.5 712 458.185 710.683 455.005 708.339 452.661 705.995 450.317 702.815 449 699.5 449L699.5 449ZM699.5 453.5C703.912 453.5 707.5 457.088 707.5 461.5 707.5 465.912 703.912 469.5 699.5 469.5 695.088 469.5 691.5 465.912 691.5 461.5 691.5 457.088 695.088 453.5 699.5 453.5ZM699.5 454.5C699.269 454.5 699.015 454.617 698.727 454.93 698.438 455.242 698.144 455.741 697.894 456.379 697.661 456.976 697.471 457.7 697.33 458.5L701.67 458.5C701.529 457.7 701.339 456.976 701.106 456.379 700.856 455.741 700.562 455.242 700.273 454.93 699.985 454.617 699.731 454.5 699.5 454.5ZM697.6 454.766C695.641 455.316 694.037 456.693 693.18 458.5L696.307 458.5C696.459 457.574 696.682 456.734 696.963 456.016 697.148 455.542 697.36 455.126 697.6 454.766ZM701.4 454.766C701.64 455.126 701.852 455.542 702.037 456.016 702.318 456.734 702.541 457.574 702.693 458.5L705.82 458.5C704.963 456.693 703.359 455.316 701.4 454.766ZM692.793 459.5C692.605 460.134 692.5 460.804 692.5 461.5 692.5 462.196 692.604 462.866 692.793 463.5L696.188 463.5C696.12 462.857 696.072 462.196 696.072 461.5 696.072 460.804 696.12 460.142 696.188 459.5L692.793 459.5ZM697.195 459.5C697.124 460.138 697.072 460.801 697.072 461.5 697.072 462.2 697.124 462.861 697.195 463.5L701.805 463.5C701.876 462.861 701.928 462.2 701.928 461.5 701.928 460.801 701.876 460.138 701.805 459.5L697.195 459.5ZM702.812 459.5C702.88 460.142 702.928 460.804 702.928 461.5 702.928 462.196 702.88 462.857 702.812 463.5L706.207 463.5C706.396 462.866 706.5 462.196 706.5 461.5 706.5 460.804 706.395 460.134 706.207 459.5L702.812 459.5ZM693.182 464.5C694.039 466.305 695.641 467.682 697.598 468.232 697.359 467.873 697.148 467.459 696.963 466.986 696.682 466.268 696.459 465.426 696.307 464.5L693.182 464.5ZM697.332 464.5C697.473 465.3 697.662 466.027 697.894 466.623 698.144 467.262 698.438 467.759 698.727 468.072 699.015 468.385 699.269 468.5 699.5 468.5 699.731 468.5 699.985 468.385 700.273 468.072 700.562 467.759 700.856 467.262 701.106 466.623 701.338 466.027 701.527 465.3 701.668 464.5L697.332 464.5ZM702.693 464.5C702.541 465.426 702.318 466.268 702.037 466.986 701.852 467.459 701.641 467.873 701.402 468.232 703.359 467.682 704.961 466.305 705.818 464.5L702.693 464.5Z" fill="#AC0000" fill-rule="evenodd"/></g></svg>