<svg width="25" height="25" xmlns="http://www.w3.org/2000/svg" xmlns:xlink="http://www.w3.org/1999/xlink" xml:space="preserve" overflow="hidden"><g transform="translate(-496 -474)"><path d="M508.5 499C501.596 499 496 493.404 496 486.5 496 479.596 501.596 474 508.5 474 515.404 474 521 479.596 521 486.5 521 493.404 515.404 499 508.5 499ZM511.104 488.062C510.425 488.609 509.892 489.31 509.554 490.112 507.453 489.188 505.812 487.547 504.878 485.517 505.69 485.108 506.39 484.575 506.929 483.906 506.791 482.391 506.01 481.094 504.867 480.26 503.344 480.811 502.283 482.226 502.249 483.892 502.364 488.644 506.106 492.483 510.804 492.749 512.575 492.728 514.07 491.675 514.737 490.174 513.905 488.99 512.607 488.209 511.122 488.064L511.104 488.062Z" fill="#AC0000"/></g></svg>