<svg width="25" height="25" xmlns="http://www.w3.org/2000/svg" xmlns:xlink="http://www.w3.org/1999/xlink" xml:space="preserve" overflow="hidden"><g transform="translate(-627 -347)"><path d="M639.5 347C636.185 347 633.005 348.317 630.661 350.661 628.317 353.005 627 356.185 627 359.5 627 362.815 628.317 365.995 630.661 368.339 633.005 370.683 636.185 372 639.5 372 642.815 372 645.995 370.683 648.339 368.339 650.683 365.995 652 362.815 652 359.5 652 356.185 650.683 353.005 648.339 350.661 645.995 348.317 642.815 347 639.5 347L639.5 347ZM639.5 353C642.255 353 644.5 355.245 644.5 358 644.5 361.835 640.853 365.354 639.854 366.354L639.5 366.707 639.146 366.354C638.145 365.352 634.5 361.825 634.5 358 634.5 355.245 636.745 353 639.5 353ZM639.5 354C637.285 354 635.5 355.785 635.5 358 635.5 360.938 638.292 363.99 639.5 365.229 640.709 363.99 643.5 360.949 643.5 358 643.5 355.785 641.715 354 639.5 354ZM639.5 356C640.599 356 641.5 356.901 641.5 358 641.5 359.099 640.599 360 639.5 360 638.401 360 637.5 359.099 637.5 358 637.5 356.901 638.401 356 639.5 356ZM639.5 357C638.942 357 638.5 357.442 638.5 358 638.5 358.558 638.942 359 639.5 359 640.058 359 640.5 358.558 640.5 358 640.5 357.442 640.058 357 639.5 357Z" fill="#AC0000"/></g></svg>