<svg width="25" height="25" xmlns="http://www.w3.org/2000/svg" xmlns:xlink="http://www.w3.org/1999/xlink" xml:space="preserve" overflow="hidden"><g transform="translate(-812 -347)"><path d="M824.5 347C831.403 347 837 352.597 837 359.5 837 366.403 831.403 372 824.5 372 817.596 372 812 366.403 812 359.5 812 352.597 817.596 347 824.5 347ZM832.021 363.618 832.017 355.577 827.227 358.874 832.021 363.618ZM826.438 359.317 824.733 360.46C824.661 360.507 824.577 360.531 824.494 360.531 824.411 360.531 824.329 360.507 824.256 360.46L822.511 359.283 817.572 364.17 831.437 364.17 826.438 359.317ZM821.768 358.783 816.99 355.561 816.99 363.589 821.768 358.783ZM824.494 359.573 831.435 354.911 817.583 354.911 824.494 359.573Z" fill="#AC0000"/></g></svg>